<?xml version="1.0" standalone="no"?><!DOCTYPE svg PUBLIC "-//W3C//DTD SVG 1.1//EN" "http://www.w3.org/Graphics/SVG/1.1/DTD/svg11.dtd"><svg t="1749725939166" class="icon" viewBox="0 0 1024 1024" version="1.1" xmlns="http://www.w3.org/2000/svg" p-id="18921" xmlns:xlink="http://www.w3.org/1999/xlink" width="200" height="200"><path d="M436.705882 524.907563l-118.319327-118.319328v180.705883c0 36.571429 27.966387 64.537815 64.537815 64.537815h258.15126c36.571429 0 64.537815-27.966387 64.537815-64.537815v-180.705883l-118.319327 118.319328c-40.87395 43.02521-109.714286 43.02521-150.588236 0z" p-id="18922" fill="#2c2c2c"></path><path d="M557.176471 464.672269l92.504201-92.504202H374.319328l92.504201 92.504202c25.815126 25.815126 66.689076 25.815126 90.352942 0z" p-id="18923" fill="#2c2c2c"></path><path d="M512 103.260504c-225.882353 0-408.739496 182.857143-408.739496 408.739496s182.857143 408.739496 408.739496 408.739496 408.739496-182.857143 408.739496-408.739496-182.857143-408.739496-408.739496-408.739496z m258.151261 529.210084c0 47.327731-38.722689 86.05042-86.050421 86.05042h-344.20168c-47.327731 0-86.05042-38.722689-86.050421-86.05042v-236.638655c0-47.327731 38.722689-86.05042 86.050421-86.05042h344.20168c47.327731 0 86.05042 38.722689 86.050421 86.05042v236.638655z" p-id="18924" fill="#2c2c2c"></path></svg>